<svg xmlns="http://www.w3.org/2000/svg" xmlns:xlink="http://www.w3.org/1999/xlink"><symbol id="alert" viewBox="0 0 20 20">
<circle cx="10" cy="10" r="9.25" stroke="#FB0000" stroke-width="1.5"/>
<path d="M10.0606 5.16125V11.7673" stroke="#FB0000" stroke-width="1.5"/>
<path d="M10.0606 13.04V15.1906" stroke="#FB0000" stroke-width="1.5"/>
</symbol><symbol id="arrow-button" viewBox="0 0 24 24">
<path d="M12 24C18.6274 24 24 18.6274 24 12C24 5.37258 18.6274 0 12 0C5.37258 0 0 5.37258 0 12C0 18.6274 5.37258 24 12 24Z" fill="currentColor"/>
<path d="M8.96201 8.28001L12.682 12L8.96201 15.72L10.141 16.899L13.861 13.179L15.04 12L13.861 10.821L10.141 7.10101L8.96201 8.28001Z" fill="#707070"/>
</symbol><symbol id="bookmark" viewBox="0 0 24 24">
<path fill-rule="evenodd" clip-rule="evenodd" d="M12.5284 20.6424L20.4932 12.5874C22.7074 10.2979 22.7074 6.75939 20.4931 4.46987C19.4427 3.38752 17.9708 2.77168 16.4288 2.7694C15.0236 2.77096 13.6765 3.28132 12.6525 4.18971C12.5518 4.27905 12.4542 4.37224 12.36 4.46918L12.0015 4.83238L11.643 4.46918C11.5465 4.36968 11.447 4.27451 11.3448 4.18368C9.23354 2.30848 5.93812 2.28413 3.79521 4.19285C3.69566 4.28156 3.59951 4.3737 3.50697 4.46918C1.29255 6.75895 1.29255 10.2977 3.50697 12.5874L11.4746 20.6424C11.7502 20.9214 12.2096 20.9333 12.5006 20.6691C12.5101 20.6604 12.5194 20.6515 12.5284 20.6424ZM4.16706 11.9422L12.0015 19.8625L19.8331 11.9422C21.6976 10.0106 21.6967 7.04282 19.8303 5.11229C18.958 4.21373 17.7272 3.69472 16.4286 3.69248C15.1285 3.69424 13.8959 4.21327 13.022 5.11249L13.017 5.11768L12.0015 6.14632L10.9801 5.11163C9.2387 3.31492 6.28853 3.20831 4.40932 4.88202M4.16706 11.9422C2.30225 10.0103 2.30329 7.04201 4.17016 5.11125C4.24669 5.0323 4.32655 4.95578 4.40932 4.88202" fill="currentColor"/>
</symbol><symbol id="check-white" viewBox="0 0 24 24">
<path fill-rule="evenodd" clip-rule="evenodd" d="M17.1783 8.2652C17.5841 8.63981 17.6094 9.27246 17.2348 9.67829L12.2348 15.1783C11.8699 15.5736 11.2577 15.6094 10.8492 15.2593L7.34923 12.2593C6.9299 11.8998 6.88134 11.2685 7.24076 10.8492C7.60018 10.4299 8.23148 10.3813 8.65081 10.7407L11.419 13.1135L15.7652 8.32172C16.1398 7.9159 16.7725 7.8906 17.1783 8.2652Z" fill="#ffffff"/>
</symbol><symbol id="close" viewBox="0 0 24 24">
<path d="M12 24C18.6274 24 24 18.6274 24 12C24 5.37258 18.6274 0 12 0C5.37258 0 0 5.37258 0 12C0 18.6274 5.37258 24 12 24Z" fill="currentColor"/>
<path d="M7 8.179L10.72 11.899L7 15.619L8.179 16.798L13.078 11.899L8.179 7L7 8.179Z" fill="#888888"/>
<path d="M16.838 15.619L13.118 11.899L16.838 8.179L15.659 7L10.76 11.899L15.659 16.798L16.838 15.619Z" fill="#888888"/>
</symbol><symbol id="comparison" viewBox="0 0 24 24">
<path fill-rule="evenodd" clip-rule="evenodd" d="M3 3.53845L21 3.53845V4.46153H3V3.53845ZM3 8.53845H21V9.46153H3V8.53845ZM17.9615 16.4615V19.5H17.0385V16.4615H14V15.5385H17.0385V12.5H17.9615V15.5385H21V16.4615H17.9615ZM3 13.5385H12V14.4615H3V13.5385ZM3 18.5385H12V19.4615H3V18.5385Z" fill="currentColor"/>
</symbol><symbol id="play" viewBox="0 0 40 40">
<path d="M20 0C8.97133 0 0 8.97219 0 20C0 31.0278 8.97133 40 20 40C31.0287 40 40 31.0278 40 20C40 8.97219 31.0287 0 20 0ZM20 38.3334C9.89094 38.3334 1.66664 30.1091 1.66664 20C1.66664 9.89094 9.89094 1.66664 20 1.66664C30.1091 1.66664 38.3334 9.89094 38.3334 20C38.3334 30.1091 30.1091 38.3334 20 38.3334Z" fill="#5EA9FF"/>
<path d="M27.9509 19.2993L16.2842 11.7993C16.0287 11.6325 15.6983 11.6235 15.4346 11.7684C15.166 11.9149 15 12.1949 15 12.5V27.5C15 27.8052 15.166 28.0852 15.4346 28.2317C15.5583 28.2992 15.6966 28.3334 15.8334 28.3334C15.9896 28.3334 16.1475 28.2894 16.2842 28.2007L27.9509 20.7007C28.1885 20.5478 28.3334 20.2832 28.3334 20C28.3334 19.7168 28.1885 19.4524 27.9509 19.2993ZM16.6666 25.9733V14.0267L25.9587 20L16.6666 25.9733Z" fill="#5EA9FF"/>
</symbol></svg>