<svg width="24" height="24" viewBox="0 0 24 24" fill="none" xmlns="http://www.w3.org/2000/svg">
<path fill-rule="evenodd" clip-rule="evenodd" d="M12.5284 20.6424L20.4932 12.5874C22.7074 10.2979 22.7074 6.75939 20.4931 4.46987C19.4427 3.38752 17.9708 2.77168 16.4288 2.7694C15.0236 2.77096 13.6765 3.28132 12.6525 4.18971C12.5518 4.27905 12.4542 4.37224 12.36 4.46918L12.0015 4.83238L11.643 4.46918C11.5465 4.36968 11.447 4.27451 11.3448 4.18368C9.23354 2.30848 5.93812 2.28413 3.79521 4.19285C3.69566 4.28156 3.59951 4.3737 3.50697 4.46918C1.29255 6.75895 1.29255 10.2977 3.50697 12.5874L11.4746 20.6424C11.7502 20.9214 12.2096 20.9333 12.5006 20.6691C12.5101 20.6604 12.5194 20.6515 12.5284 20.6424ZM4.16706 11.9422L12.0015 19.8625L19.8331 11.9422C21.6976 10.0106 21.6967 7.04282 19.8303 5.11229C18.958 4.21373 17.7272 3.69472 16.4286 3.69248C15.1285 3.69424 13.8959 4.21327 13.022 5.11249L13.017 5.11768L12.0015 6.14632L10.9801 5.11163C9.2387 3.31492 6.28853 3.20831 4.40932 4.88202M4.16706 11.9422C2.30225 10.0103 2.30329 7.04201 4.17016 5.11125C4.24669 5.0323 4.32655 4.95578 4.40932 4.88202" fill="currentColor"/>
</svg>
